<svg xmlns="http://www.w3.org/2000/svg" viewBox="0 0 512 512"><defs><style>.cls-1,.cls-3{fill:red;}.cls-2{fill:none;}.cls-2,.cls-3{stroke:#000;stroke-miterlimit:10;stroke-width:12px;}</style></defs><g id="Circle"><g id="Ring"><path class="cls-1" d="M256,26C129,26,26,129,26,256S129,486,256,486,486,383,486,256,383,26,256,26ZM401.7,333.46C356,418.62,253.72,453,173.25,410.19S64.6,263.69,110.3,178.54,258.28,59,338.75,101.81,447.4,248.31,401.7,333.46Z"/><path class="cls-2" d="M256,26C129,26,26,129,26,256S129,486,256,486,486,383,486,256,383,26,256,26ZM401.7,333.46C356,418.62,253.72,453,173.25,410.19S64.6,263.69,110.3,178.54,258.28,59,338.75,101.81,447.4,248.31,401.7,333.46Z"/></g></g><g id="Friend"><circle id="Head" class="cls-3" cx="256" cy="235" r="45"/><path class="cls-1" d="M355.2,319.1l-57.5-34.25a65,65,0,0,1-83.4,0L156.8,319.1c-19.2,11.44-11.09,40.9,11.26,40.9H343.94C366.29,360,374.4,330.54,355.2,319.1Z"/><path class="cls-2" d="M355.2,319.1l-57.5-34.25a65,65,0,0,1-83.4,0L156.8,319.1c-19.2,11.44-11.09,40.9,11.26,40.9H343.94C366.29,360,374.4,330.54,355.2,319.1Z"/></g></svg>