<svg xmlns="http://www.w3.org/2000/svg" viewBox="0 0 512 512"><defs><style>.cls-1,.cls-3{fill:#fff000;}.cls-2{fill:none;stroke-miterlimit:10;}.cls-2,.cls-3{stroke:#000;stroke-width:12px;}.cls-3{stroke-linecap:round;stroke-linejoin:round;}</style></defs><g id="Triangle"><path class="cls-1" d="M487.19,318.31,334.81,54.37c-35-60.66-122.59-60.66-157.62,0L24.81,318.31c-35,60.66,8.75,136.5,78.81,136.5H408.38C478.44,454.81,522.22,379,487.19,318.31Zm-100.47,72H125.28c-30.79,0-50-33.34-34.64-60L221.36,103.91c15.4-26.67,53.88-26.67,69.28,0L421.36,330.32C436.76,357,417.51,390.32,386.72,390.32Z"/><path class="cls-2" d="M487.19,318.31,334.81,54.37c-35-60.66-122.59-60.66-157.62,0L24.81,318.31c-35,60.66,8.75,136.5,78.81,136.5H408.38C478.44,454.81,522.22,379,487.19,318.31Zm-100.47,72H125.28c-30.79,0-50-33.34-34.64-60L221.36,103.91c15.4-26.67,53.88-26.67,69.28,0L421.36,330.32C436.76,357,417.51,390.32,386.72,390.32Z"/></g><g id="Sheep"><path class="cls-3" d="M206,244c-2.88,21.94-17.24,71.35-10,96s32.28,40,60,40,52.67-14.8,60-40c6.87-23.63-5.59-77.59-10-96,18.18,14.88,33,16.29,50.5,8.7-6.56-30.88-26.68-46-50.5-52.7-18.77-5.24-72.53-7.47-100,0-21.46,5.84-49.47,25.35-54.07,53C169.94,260.65,185.47,258.53,206,244Z"/><path class="cls-3" d="M256.5,161.47c-15.62-5.13-28-5.65-35.74,5.65-10.23-3.18-19-1.41-20.47,9.53-11.64,8.47-11.79,14.23-8.11,20.47-2.38,13.52,3.23,16.82,15,17.94,4,10.29,21,10.29,32.62,3.59,9.18,8.47,29.65,9.88,38.47-1.41,14.47,8.47,20.12,2.82,24.71-6.71,10.59,1.06,19.06-11.29,15.53-20.82,1.5-17.3-8.4-19.05-20.47-21.53C281.82,155.82,268.41,154.41,256.5,161.47Z"/><circle cx="280" cy="271" r="15"/><circle cx="234" cy="271" r="15"/></g></svg>