<svg xmlns="http://www.w3.org/2000/svg" viewBox="0 0 512 512"><defs><style>.cls-1,.cls-3{fill:#fff000;}.cls-2{fill:none;}.cls-2,.cls-3{stroke:#000;stroke-miterlimit:10;stroke-width:12px;}</style></defs><g id="Triangle"><path class="cls-1" d="M487.19,318.31,334.81,54.37c-35-60.66-122.59-60.66-157.62,0L24.81,318.31c-35,60.66,8.75,136.5,78.81,136.5H408.38C478.44,454.81,522.22,379,487.19,318.31Zm-100.47,72H125.28c-30.79,0-50-33.34-34.64-60L221.36,103.91c15.4-26.67,53.88-26.67,69.28,0L421.36,330.32C436.76,357,417.51,390.32,386.72,390.32Z"/><path class="cls-2" d="M487.19,318.31,334.81,54.37c-35-60.66-122.59-60.66-157.62,0L24.81,318.31c-35,60.66,8.75,136.5,78.81,136.5H408.38C478.44,454.81,522.22,379,487.19,318.31Zm-100.47,72H125.28c-30.79,0-50-33.34-34.64-60L221.36,103.91c15.4-26.67,53.88-26.67,69.28,0L421.36,330.32C436.76,357,417.51,390.32,386.72,390.32Z"/></g><g id="Friend"><circle id="Head" class="cls-3" cx="256" cy="235" r="45"/><path class="cls-1" d="M355.2,319.1l-57.5-34.25a65,65,0,0,1-83.4,0L156.8,319.1c-19.2,11.44-11.09,40.9,11.26,40.9H343.94C366.29,360,374.4,330.54,355.2,319.1Z"/><path class="cls-2" d="M355.2,319.1l-57.5-34.25a65,65,0,0,1-83.4,0L156.8,319.1c-19.2,11.44-11.09,40.9,11.26,40.9H343.94C366.29,360,374.4,330.54,355.2,319.1Z"/></g></svg>